<?xml version="1.0" encoding="UTF-8"?>
<!DOCTYPE svg PUBLIC "-//W3C//DTD SVG 1.1//EN" "http://www.w3.org/Graphics/SVG/1.1/DTD/svg11.dtd">
<svg xmlns="http://www.w3.org/2000/svg" version="1.1" width="400px" height="400px" style="shape-rendering:geometricPrecision; text-rendering:geometricPrecision; image-rendering:optimizeQuality; fill-rule:evenodd; clip-rule:evenodd" xmlns:xlink="http://www.w3.org/1999/xlink">
<g><path style="opacity:0.946" fill="#d0a102" d="M 198.5,11.5 C 199.725,12.1522 200.392,13.3189 200.5,15C 207.643,54.5452 214.976,94.0452 222.5,133.5C 214.772,141.287 209.939,150.621 208,161.5C 207.667,181.833 207.333,202.167 207,222.5C 201.912,225.294 196.745,227.961 191.5,230.5C 190.667,206.84 190.167,183.174 190,159.5C 187.821,150.324 183.487,142.324 177,135.5C 176.833,134.5 176.667,133.5 176.5,132.5C 183.727,92.1391 191.06,51.8057 198.5,11.5 Z"/></g>
<g><path style="opacity:0.936" fill="#d0a102" d="M 131.5,26.5 C 154.554,40.4773 161.721,60.4773 153,86.5C 147.295,102.617 141.795,118.783 136.5,135C 132.985,148.446 136.318,159.779 146.5,169C 156.3,174.556 166.3,174.89 176.5,170C 179.017,167.651 181.35,165.151 183.5,162.5C 186.358,180.82 178.691,191.986 160.5,196C 135.225,198.373 118.725,187.539 111,163.5C 108.841,154.411 109.174,145.411 112,136.5C 119.119,119.594 126.786,102.927 135,86.5C 141.021,72.6868 143.021,58.3535 141,43.5C 138.812,37.1802 135.645,31.5135 131.5,26.5 Z"/></g>
<g><path style="opacity:0.934" fill="#d0a102" d="M 264.5,26.5 C 265.376,26.3691 266.043,26.7025 266.5,27.5C 257.29,38.9757 254.123,51.9757 257,66.5C 258.056,72.6685 259.723,78.6685 262,84.5C 270.531,101.563 278.531,118.896 286,136.5C 292.633,164.064 283.133,183.564 257.5,195C 242.121,199.365 228.954,195.865 218,184.5C 216.139,182.112 214.806,179.446 214,176.5C 213.739,172.294 213.239,168.127 212.5,164C 212.85,162.743 213.517,162.409 214.5,163C 221.267,172.037 230.267,175.37 241.5,173C 252.325,170.175 259.158,163.342 262,152.5C 262.667,147.167 262.667,141.833 262,136.5C 256.871,120.781 251.538,105.114 246,89.5C 238.223,70.6528 240.556,53.3195 253,37.5C 256.812,33.7021 260.645,30.0355 264.5,26.5 Z"/></g>
<g><path style="opacity:0.922" fill="#d0a102" d="M 254.5,209.5 C 272.243,207.547 288.576,211.38 303.5,221C 310.62,225.624 317.286,230.791 323.5,236.5C 318.947,238.153 314.28,238.653 309.5,238C 300.867,235.851 292.534,232.851 284.5,229C 270.179,225.104 256.179,226.104 242.5,232C 231.132,237.341 219.799,242.674 208.5,248C 218.681,253.06 229.348,256.727 240.5,259C 249.702,259.793 258.869,259.626 268,258.5C 268.5,258.833 269,259.167 269.5,259.5C 262.517,265.221 254.517,268.721 245.5,270C 235.04,271.055 224.707,270.388 214.5,268C 205.612,265.222 196.945,261.888 188.5,258C 175.445,250.806 162.112,244.139 148.5,238C 135.897,233.307 122.897,231.307 109.5,232C 97.8666,233.713 86.5333,236.546 75.5,240.5C 75.1667,240.167 74.8333,239.833 74.5,239.5C 99.3087,215.305 127.975,209.471 160.5,222C 170.368,226.517 179.868,231.684 189,237.5C 204.878,230.145 220.712,222.645 236.5,215C 242.535,212.818 248.535,210.985 254.5,209.5 Z"/></g>
<g><path style="opacity:0.858" fill="#d0a102" d="M 260.5,235.5 C 267.327,235.124 273.994,235.957 280.5,238C 286.502,240.999 292.168,244.499 297.5,248.5C 288.126,249.733 278.792,249.4 269.5,247.5C 259.297,248.974 249.131,250.641 239,252.5C 232.612,252.035 226.778,250.202 221.5,247C 225.152,247.583 228.819,247.25 232.5,246C 241.836,242.151 251.169,238.651 260.5,235.5 Z"/></g>
<g><path style="opacity:0.883" fill="#d0a102" d="M 112.5,241.5 C 122.31,240.927 131.977,241.76 141.5,244C 157.107,250.804 172.441,258.137 187.5,266C 196.448,269.889 205.614,272.055 215,272.5C 215.483,273.448 215.649,274.448 215.5,275.5C 204.395,277.187 193.395,276.687 182.5,274C 169.857,269.785 157.524,264.785 145.5,259C 139.506,256.793 133.34,255.293 127,254.5C 120.907,255.42 114.907,256.753 109,258.5C 102.56,257.632 96.7265,255.299 91.5,251.5C 98.0303,247 105.03,243.666 112.5,241.5 Z"/></g>
<g><path style="opacity:0.933" fill="#d0a102" d="M 185.5,280.5 C 190.179,280.334 194.845,280.501 199.5,281C 207.621,282.957 211.288,287.957 210.5,296C 206.129,296.828 201.795,296.661 197.5,295.5C 196.138,291.653 193.472,290.153 189.5,291C 186.629,293.84 186.963,296.174 190.5,298C 198.668,299.046 205.501,302.546 211,308.5C 214.513,329.317 205.68,337.817 184.5,334C 176.433,331.054 172.433,325.22 172.5,316.5C 177.119,315.686 181.786,315.353 186.5,315.5C 186.222,320.279 188.388,323.279 193,324.5C 197.586,323.592 199.252,320.926 198,316.5C 192.38,313.629 186.547,311.129 180.5,309C 172.669,302.019 171.669,294.186 177.5,285.5C 179.928,283.295 182.595,281.628 185.5,280.5 Z"/></g>
<g><path style="opacity:0.969" fill="#d0a102" d="M 56.5,281.5 C 70.5,281.5 84.5,281.5 98.5,281.5C 98.5,285.5 98.5,289.5 98.5,293.5C 93.8333,293.5 89.1667,293.5 84.5,293.5C 84.5,306.833 84.5,320.167 84.5,333.5C 79.8333,333.5 75.1667,333.5 70.5,333.5C 70.5,320.167 70.5,306.833 70.5,293.5C 65.8333,293.5 61.1667,293.5 56.5,293.5C 56.5,289.5 56.5,285.5 56.5,281.5 Z"/></g>
<g><path style="opacity:0.939" fill="#d0a102" d="M 103.5,281.5 C 113.839,281.334 124.172,281.5 134.5,282C 138.896,282.73 141.73,285.23 143,289.5C 145.974,299.457 143.141,306.957 134.5,312C 137.333,313.5 139.5,315.667 141,318.5C 143.038,323.408 145.205,328.241 147.5,333C 141.804,333.83 136.137,333.663 130.5,332.5C 128.094,325.345 124.428,319.011 119.5,313.5C 118.503,320.134 118.17,326.8 118.5,333.5C 113.5,333.5 108.5,333.5 103.5,333.5C 103.5,316.167 103.5,298.833 103.5,281.5 Z M 118.5,293.5 C 122.257,293.071 125.757,293.737 129,295.5C 129.896,298.025 129.396,300.192 127.5,302C 124.607,303.149 121.607,303.649 118.5,303.5C 118.5,300.167 118.5,296.833 118.5,293.5 Z"/></g>
<g><path style="opacity:0.962" fill="#d0a102" d="M 151.5,281.5 C 156.167,281.5 160.833,281.5 165.5,281.5C 165.5,298.833 165.5,316.167 165.5,333.5C 160.833,333.5 156.167,333.5 151.5,333.5C 151.5,316.167 151.5,298.833 151.5,281.5 Z"/></g>
<g><path style="opacity:0.936" fill="#d0a102" d="M 218.5,281.5 C 223.167,281.5 227.833,281.5 232.5,281.5C 232.082,293.895 232.582,306.228 234,318.5C 238,323.833 242,323.833 246,318.5C 246.5,306.171 246.667,293.838 246.5,281.5C 251.5,281.5 256.5,281.5 261.5,281.5C 261.667,293.505 261.5,305.505 261,317.5C 259.444,329.557 252.611,335.224 240.5,334.5C 230.627,335.487 223.794,331.487 220,322.5C 218.594,308.885 218.094,295.218 218.5,281.5 Z"/></g>
<g><path style="opacity:0.979" fill="#d0a102" d="M 269.5,281.5 C 274.167,281.5 278.833,281.5 283.5,281.5C 283.5,294.5 283.5,307.5 283.5,320.5C 290.5,320.5 297.5,320.5 304.5,320.5C 304.5,324.833 304.5,329.167 304.5,333.5C 292.833,333.5 281.167,333.5 269.5,333.5C 269.5,316.167 269.5,298.833 269.5,281.5 Z"/></g>
<g><path style="opacity:0.948" fill="#d0a102" d="M 321.5,281.5 C 327.631,280.908 333.464,281.575 339,283.5C 343.866,299.931 349.032,316.264 354.5,332.5C 349.5,333.833 344.5,333.833 339.5,332.5C 338.518,329.904 337.851,327.238 337.5,324.5C 332.5,324.5 327.5,324.5 322.5,324.5C 322.38,327.48 321.713,330.313 320.5,333C 315.845,333.499 311.179,333.666 306.5,333.5C 311.5,316.167 316.5,298.833 321.5,281.5 Z M 329.5,296.5 C 331.53,300.916 333.197,305.583 334.5,310.5C 331.914,311.48 329.247,311.813 326.5,311.5C 327.659,306.532 328.659,301.532 329.5,296.5 Z"/></g>
<g><path style="opacity:0.919" fill="#d0a102" d="M 299.5,340.5 C 305.434,339.889 311.1,340.722 316.5,343C 318.902,345.703 320.235,348.87 320.5,352.5C 317.962,352.507 315.462,352.841 313,353.5C 310.361,352.215 307.694,350.882 305,349.5C 300.198,351.956 298.031,355.956 298.5,361.5C 297.833,367.589 300.333,371.589 306,373.5C 309.706,373.091 311.539,371.091 311.5,367.5C 309.5,367.5 307.5,367.5 305.5,367.5C 305.5,364.5 305.5,361.5 305.5,358.5C 310.833,358.5 316.167,358.5 321.5,358.5C 325.203,376.505 317.87,384.338 299.5,382C 293.559,379.986 290.059,375.819 289,369.5C 287.644,361.471 288.644,353.805 292,346.5C 294.134,343.847 296.634,341.847 299.5,340.5 Z"/></g>
<g><path style="opacity:0.91" fill="#d0a102" d="M 98.5,341.5 C 103.167,341.5 107.833,341.5 112.5,341.5C 113.342,348.211 114.509,354.878 116,361.5C 118.029,355.013 119.529,348.346 120.5,341.5C 125.167,341.5 129.833,341.5 134.5,341.5C 134.5,354.833 134.5,368.167 134.5,381.5C 131.5,381.5 128.5,381.5 125.5,381.5C 125.666,373.826 125.5,366.159 125,358.5C 123.433,366.167 121.933,373.834 120.5,381.5C 117.552,381.777 114.719,381.444 112,380.5C 110.667,373.833 109.333,367.167 108,360.5C 107.5,367.492 107.334,374.492 107.5,381.5C 104.5,381.5 101.5,381.5 98.5,381.5C 98.5,368.167 98.5,354.833 98.5,341.5 Z"/></g>
<g><path style="opacity:0.968" fill="#d0a102" d="M 140.5,341.5 C 149.5,341.5 158.5,341.5 167.5,341.5C 167.5,344.5 167.5,347.5 167.5,350.5C 161.833,350.5 156.167,350.5 150.5,350.5C 150.5,352.167 150.5,353.833 150.5,355.5C 155.833,355.5 161.167,355.5 166.5,355.5C 166.5,358.5 166.5,361.5 166.5,364.5C 161.167,364.5 155.833,364.5 150.5,364.5C 150.5,367.167 150.5,369.833 150.5,372.5C 156.167,372.5 161.833,372.5 167.5,372.5C 167.5,375.5 167.5,378.5 167.5,381.5C 158.5,381.5 149.5,381.5 140.5,381.5C 140.5,368.167 140.5,354.833 140.5,341.5 Z"/></g>
<g><path style="opacity:0.968" fill="#d0a102" d="M 171.5,341.5 C 180.5,341.5 189.5,341.5 198.5,341.5C 198.5,344.5 198.5,347.5 198.5,350.5C 192.833,350.5 187.167,350.5 181.5,350.5C 181.5,352.167 181.5,353.833 181.5,355.5C 186.833,355.5 192.167,355.5 197.5,355.5C 197.5,358.5 197.5,361.5 197.5,364.5C 192.167,364.5 186.833,364.5 181.5,364.5C 181.5,367.167 181.5,369.833 181.5,372.5C 187.167,372.5 192.833,372.5 198.5,372.5C 198.5,375.5 198.5,378.5 198.5,381.5C 189.5,381.5 180.5,381.5 171.5,381.5C 171.5,368.167 171.5,354.833 171.5,341.5 Z"/></g>
<g><path style="opacity:0.93" fill="#d0a102" d="M 201.5,341.5 C 211.5,341.5 221.5,341.5 231.5,341.5C 231.5,344.5 231.5,347.5 231.5,350.5C 228.167,350.5 224.833,350.5 221.5,350.5C 221.5,360.833 221.5,371.167 221.5,381.5C 217.833,381.5 214.167,381.5 210.5,381.5C 210.5,371.167 210.5,360.833 210.5,350.5C 207.5,350.5 204.5,350.5 201.5,350.5C 201.5,347.5 201.5,344.5 201.5,341.5 Z"/></g>
<g><path style="opacity:0.891" fill="#d0a102" d="M 235.5,341.5 C 239.167,341.5 242.833,341.5 246.5,341.5C 246.5,354.833 246.5,368.167 246.5,381.5C 242.833,381.5 239.167,381.5 235.5,381.5C 235.5,368.167 235.5,354.833 235.5,341.5 Z"/></g>
<g><path style="opacity:0.93" fill="#d0a102" d="M 252.5,341.5 C 255.85,341.335 259.183,341.502 262.5,342C 266.382,348.261 269.882,354.761 273,361.5C 273.5,354.842 273.666,348.175 273.5,341.5C 276.833,341.5 280.167,341.5 283.5,341.5C 283.5,354.833 283.5,368.167 283.5,381.5C 279.774,381.823 276.107,381.489 272.5,380.5C 269.535,374.375 266.368,368.375 263,362.5C 262.5,368.825 262.334,375.158 262.5,381.5C 259.167,381.5 255.833,381.5 252.5,381.5C 252.5,368.167 252.5,354.833 252.5,341.5 Z"/></g>
</svg>
